<?xml version="1.0" standalone="no"?>
<!DOCTYPE svg PUBLIC "-//W3C//DTD SVG 20010904//EN" "http://www.w3.org/TR/2001/REC-SVG-20010904/DTD/svg10.dtd">
<!-- Created using Krita: https://krita.org -->
<svg xmlns="http://www.w3.org/2000/svg" 
    xmlns:xlink="http://www.w3.org/1999/xlink"
    xmlns:krita="http://krita.org/namespaces/svg/krita"
    xmlns:sodipodi="http://sodipodi.sourceforge.net/DTD/sodipodi-0.dtd"
    width="184.32pt"
    height="184.32pt"
    viewBox="0 0 184.32 184.32">
<defs/>
<path id="shape0" transform="matrix(0.719999971389772 0 0 0.719999971389772 -3.05175944959046e-07 -3.05175944959046e-07)" fill="#268bd2" fill-rule="evenodd" stroke="#0066cc" stroke-width="0" stroke-linecap="square" stroke-linejoin="bevel" d="M128 256C119.164 256 112 248.837 112 240L112 206.4C102.531 203.992 93.5837 199.872 85.6 194.24L61.6 218.24C54.9726 224.867 44.2274 224.867 37.6 218.24C30.9726 211.613 30.9726 200.867 37.6 194.24L61.6 170.24C56.0427 162.293 51.9766 153.402 49.6 144L16 144C7.16344 144 1.08217e-15 136.836 0 128C-1.08217e-15 119.164 7.16344 112 16 112L49.6 112C52.0074 102.531 56.1286 93.5837 61.76 85.6L37.76 61.6C31.1326 54.9726 31.1326 44.2274 37.76 37.6C44.3874 30.9726 55.1326 30.9726 61.76 37.6L85.76 61.6C93.707 56.0427 102.598 51.9766 112 49.6L112 16C112 7.16344 119.164 1.62325e-15 128 0C136.836 -1.62325e-15 144 7.16344 144 16L144 49.6C153.469 52.0074 162.416 56.1286 170.4 61.76L194.4 37.76C201.027 31.1326 211.773 31.1326 218.4 37.76C225.027 44.3874 225.027 55.1326 218.4 61.76L194.4 85.76C199.957 93.707 204.024 102.598 206.4 112L240 112C248.837 112 256 119.164 256 128C256 136.836 248.837 144 240 144L206.4 144C203.992 153.469 199.872 162.416 194.24 170.4L218.24 194.4C224.867 201.027 224.867 211.773 218.24 218.4C211.613 225.027 200.867 225.027 194.24 218.4L170.24 194.4C162.293 199.957 153.402 204.024 144 206.4L144 240C144 248.837 136.836 256 128 256ZM80 128C80 101.49 101.49 80 128 80C154.51 80 176 101.49 176 128C176 154.51 154.51 176 128 176C101.49 176 80 154.51 80 128Z" sodipodi:nodetypes="cccccccccccccccccccccccccccccccccccccccccccccc"/>
</svg>
